<svg id="Bold" height="512" viewBox="0 0 24 24" width="512" xmlns="http://www.w3.org/2000/svg"><path d="m6.208 17h-1.458c-.414 0-.75-.336-.75-.75v-4.5c0-.414.336-.75.75-.75h1.458c.988 0 1.792.841 1.792 1.875 0 .422-.134.812-.359 1.125.225.313.359.703.359 1.125 0 1.034-.804 1.875-1.792 1.875zm-.708-1.5h.708c.158 0 .292-.172.292-.375s-.133-.375-.292-.375h-.708zm0-2.25h.708c.158 0 .292-.172.292-.375s-.133-.375-.292-.375h-.708z"/><path d="m12.25 17h-.5c-.965 0-1.75-.785-1.75-1.75v-3.5c0-.414.336-.75.75-.75s.75.336.75.75v3.5c0 .138.112.25.25.25h.5c.138 0 .25-.112.25-.25v-3.5c0-.414.336-.75.75-.75s.75.336.75.75v3.5c0 .965-.785 1.75-1.75 1.75z"/><path d="m18 14.75c-.272 0-.523-.147-.656-.386l-1.25-2.25c-.201-.362-.071-.818.292-1.02.361-.202.818-.072 1.02.291l.594 1.071.594-1.07c.201-.363.659-.493 1.02-.291.362.201.493.657.292 1.02l-1.25 2.25c-.133.238-.384.385-.656.385z"/><path d="m18 17c-.414 0-.75-.336-.75-.75v-2.25c0-.414.336-.75.75-.75s.75.336.75.75v2.25c0 .414-.336.75-.75.75z"/><path d="m21 1h-18c-1.654 0-3 1.346-3 3v16c0 1.654 1.346 3 3 3h18c1.654 0 3-1.346 3-3v-16c0-1.654-1.346-3-3-3zm0 20h-18c-.551 0-1-.448-1-1v-14h20v14c0 .552-.449 1-1 1z"/></svg>